<svg clip-rule="evenodd" fill-rule="evenodd" stroke-linejoin="round" stroke-miterlimit="2" viewBox="0 0 294 241" xmlns="http://www.w3.org/2000/svg"><g fill-rule="nonzero"><path d="m.8 36.7a37.1 37.1 0 0 1 62.4-26.7l-7.2 7a26.3 26.3 0 0 0 -44.3 19.4 26.3 26.3 0 0 0 26.3 26.9c9.6 0 15-3.8 18.5-7.3 2.9-2.9 4.8-7 5.5-12.6h-24v-10h33.8c.3 1.8.5 4 .5 6.3 0 7.6-2 16.8-8.6 23.4a33.8 33.8 0 0 1 -25.7 10.2 37.1 37.1 0 0 1 -37.2-36.6z" fill="#4285f4"/><path d="m292.3 211a4 4 0 0 0 -2.6-.8h-.3c-17.5-.8-38-1.4-57.7-1.7h-28.7c-9.1 0-17.7 0-25.2.2-81.9.9-162.2 4.6-172.8 5-2.8.1-3.6 1.3-3.6 2.1 0 2.3.1 6.2 2.5 6.7 1.6.3 9.9 0 17.8-.5l15.6-.9s11.8-.6 24.3-1c12.4-.6 25.4-1 27.9-1l17.4-.6 19-.6c7.5-.3 15.8-.4 24.9-.6a2111 2111 0 0 1 63.1-.7h10.3a4989.8 4989.8 0 0 0 -135.8 13.1l-23.4 3c-9.8 1.2-19.9 2.8-24.6 3.8-4.7 1.2-5.6 3.8 0 3.6 3.4-.2 18-1.8 25.2-2.5a3807.6 3807.6 0 0 1 70.6-7c20.8-1.8 45.1-3.7 71.1-5.7l40.4-3 20.8-1.5 10.5-.7 5.3-.3 2.7-.3h2.3c.4 0 .9-.2 1.4-.4.9-.4 1.8-1 2.4-1.7 1.4-1.8 1-4.5-.8-6z" fill="#f190af"/><path d="m9.5 196.5h-5.9l15.6-41.2h6l15.6 41.2h-6l-3.8-11.2h-17.3zm12.6-34.7-6.8 18.6h13.8l-6.8-18.6zm33.4 35.6a14 14 0 0 1 -10.4-4.2 15 15 0 0 1 -4-10.8c0-4.3 1.3-8 4-10.7 2.8-3 6.3-4.2 10.4-4.2 3 0 5.4.7 7.6 2.1a13 13 0 0 1 4.8 6l-4.8 2a8 8 0 0 0 -7.8-5.3c-2.4 0-4.5 1-6.3 2.9-1.7 2-2.5 4.3-2.5 7.2 0 3 .8 5.3 2.5 7.3 1.8 1.9 3.9 2.9 6.3 2.9 3.8 0 6.6-1.9 8.2-5.4l4.7 2.1a13 13 0 0 1 -4.8 6c-2.5 1.4-5 2-7.9 2zm29.5 0a14 14 0 0 1 -10.4-4.2 15 15 0 0 1 -4.1-10.8c0-4.3 1.3-8 4-10.7 2.9-3 6.4-4.2 10.5-4.2 2.9 0 5.4.7 7.6 2.1a13 13 0 0 1 4.8 6l-4.8 2a8 8 0 0 0 -7.9-5.3c-2.4 0-4.4 1-6.3 2.9-1.6 2-2.5 4.3-2.5 7.2 0 3 .9 5.3 2.5 7.3 1.9 1.9 3.9 2.9 6.3 2.9 3.9 0 6.7-1.9 8.2-5.4l4.7 2.1a13 13 0 0 1 -4.8 6c-2.3 1.4-5 2-7.8 2zm29.3 0c-4.1 0-7.6-1.5-10.3-4.2-2.6-3-4-6.4-4-10.8 0-4.3 1.4-7.8 3.9-10.7 2.7-3 6-4.4 10-4.4 4.2 0 7.5 1.4 10 4.1 2.6 2.7 3.8 6.6 3.8 11.4v.6h-22.3a9 9 0 0 0 9 9.2c3.4 0 6-1.7 8-5.1l4.7 2.3c-1.2 2.4-3 4.2-5.3 5.5-2.2 1.5-4.7 2-7.5 2zm-8.5-18.4h16.2c-.1-1.9-1-3.6-2.4-4.8a8.2 8.2 0 0 0 -5.8-2c-2 0-3.7.7-5.2 1.9a7.8 7.8 0 0 0 -2.8 5zm26.3-23.7h5.3v41.3h-5.3zm24.2 42.1c-4.1 0-7.6-1.5-10.3-4.2-2.6-3-4-6.4-4-10.8 0-4.3 1.4-7.8 3.9-10.7 2.6-3 5.9-4.4 10-4.4 4.2 0 7.5 1.4 10 4.1 2.6 2.7 3.8 6.6 3.8 11.4v.6h-22.2a9 9 0 0 0 9 9.2c3.4 0 6-1.7 8-5.1l4.7 2.3c-1.2 2.4-3 4.2-5.3 5.5-2.2 1.5-4.9 2-7.6 2zm-8.5-18.4h16.2c-.1-1.9-1-3.6-2.4-4.8a8.2 8.2 0 0 0 -5.8-2c-2 0-3.8.7-5.2 1.9a8.4 8.4 0 0 0 -2.8 5zm31.6 17.5h-5.3v-28.2h5v4.6h.3a8.2 8.2 0 0 1 3.3-3.9c1.7-1 3.2-1.5 5-1.5 1.5 0 2.8.2 3.8.7l-1.6 5c-.6-.2-1.7-.3-3.1-.3-2 0-3.7.8-5.2 2.4a8.1 8.1 0 0 0 -2.2 5.7zm25.9-29.2c3.8 0 7 1.1 9.2 3.2 2.3 2 3.4 5 3.4 8.5v17.4h-5v-3.8h-.3a10 10 0 0 1 -8.8 4.8c-3.1 0-5.7-1-7.8-2.8a8.8 8.8 0 0 1 -3.2-6.9c0-2.9 1.1-5.2 3.3-7 2.2-1.7 5.2-2.5 8.8-2.5 3.1 0 5.8.6 7.7 1.7v-1.2c0-1.8-.7-3.4-2.2-4.7a7.2 7.2 0 0 0 -5-2c-3 0-5.3 1.3-7 3.8l-4.7-3c2.7-3.7 6.5-5.5 11.6-5.5zm-7 20.6c0 1.3.7 2.5 1.9 3.4 1.2 1 2.5 1.4 4 1.4 2.3 0 4.3-.9 6-2.6a8.1 8.1 0 0 0 2.7-5.7c-1.7-1.4-4-2-7-2-2.1 0-4 .5-5.4 1.6-1.4 1-2.1 2.3-2.1 3.9zm35.7 9c-2.3 0-4.3-.7-5.7-2.2a7.8 7.8 0 0 1 -2.4-5.8v-15.8h-5v-4.8h5v-8.7h5.3v8.7h6.9v4.8h-7v14c0 2 .5 3.2 1.2 3.9s1.5 1 2.5 1c.5 0 .9 0 1.2-.2.4 0 .7-.2 1.1-.3l1.7 4.7c-1.5.5-3 .7-4.8.7zm6.1-14.5c0-4.3 1.3-8 4.1-10.7 2.8-3 6.3-4.2 10.4-4.2a14 14 0 0 1 10.4 4.2c2.8 2.9 4 6.4 4 10.7 0 4.4-1.2 8-4 10.8a13.6 13.6 0 0 1 -10.4 4.2 14 14 0 0 1 -10.4-4.2 15.3 15.3 0 0 1 -4-10.8zm5.3 0c0 3 .9 5.5 2.7 7.4 1.8 2 4 2.8 6.5 2.8 2.7 0 4.8-1 6.5-2.8 1.8-2 2.7-4.4 2.7-7.4s-.9-5.4-2.7-7.3a8.6 8.6 0 0 0 -13 0c-1.7 1.9-2.7 4.3-2.7 7.3zm32.4 14.1h-5.3v-28.2h5v4.6h.3a8.2 8.2 0 0 1 3.2-3.9c1.7-1 3.3-1.5 5-1.5 1.5 0 2.9.2 3.8.7l-1.5 5c-.6-.2-1.7-.3-3.2-.3-2 0-3.7.8-5.2 2.4a8.1 8.1 0 0 0 -2.1 5.7z" fill="#475668"/><path d="m99.5 26.1c-13 0-23.7 10-23.7 23.6a23.3 23.3 0 0 0 23.7 23.6c13 0 23.7-10 23.7-23.6a23.2 23.2 0 0 0 -23.7-23.6zm0 37.9c-7.1 0-13.3-5.9-13.3-14.3 0-8.6 6.1-14.4 13.3-14.4 7.1 0 13.3 5.8 13.3 14.4 0 8.4-6.2 14.3-13.3 14.3z" fill="#ea4335"/><path d="m151.2 26.1c-13 0-23.7 10-23.7 23.6a23.3 23.3 0 0 0 23.7 23.6c13 0 23.7-10 23.7-23.6a23.2 23.2 0 0 0 -23.7-23.6zm0 37.9c-7.1 0-13.4-5.9-13.4-14.3 0-8.6 6.2-14.4 13.4-14.4s13.3 5.8 13.3 14.4c0 8.4-6.2 14.3-13.3 14.3z" fill="#fbbc05"/><path d="m214.6 27.5v3.9h-.3a16.2 16.2 0 0 0 -12.5-5.3 23.5 23.5 0 0 0 -22.6 23.6 23.4 23.4 0 0 0 22.6 23.6 16 16 0 0 0 12.5-5.4h.3v3.4c0 9-4.8 13.9-12.6 13.9a13 13 0 0 1 -11.8-8.4l-9 3.7c2.5 6.3 9.5 14 21 14 12 0 22.3-7.1 22.3-24.6v-42.4zm-11.9 36.5c-7 0-13-6-13-14.3s6-14.4 13-14.4c7.1 0 12.6 6.1 12.6 14.4s-5.5 14.3-12.6 14.3z" fill="#4285f4"/><path d="m242 71.9h-10.3v-69.4h10.3v69.5z" fill="#34a853"/><path d="m270.4 64a12 12 0 0 1 -11.4-7.1l31.5-13.1-1-2.7c-2-5.3-8-15-20.2-15-12.1 0-22.3 9.6-22.3 23.6 0 13.2 10 23.6 23.4 23.6 10.9 0 17-6.6 19.7-10.4l-8-5.4c-2.7 3.9-6.4 6.5-11.7 6.5zm-.7-28.8c4 0 7.6 2 8.7 5l-21.1 8.8a13 13 0 0 1 12.4-13.8z" fill="#ea4335"/><path fill="#475668" d="m14.7 97.9c2 0 3.5.3 4.7 1l-1.4 4.6c-1-.5-2-.7-3-.7-1.4 0-2.5.4-3.3 1.4a5 5 0 0 0 -1.2 3.5v3.5h7.3v4.8h-7.3v23.2h-5.2v-23.2h-5.3v-4.8h5.3v-4c0-2.8.8-5 2.6-6.8 1.8-1.7 4-2.5 6.8-2.5zm4.8 27.3c0-4.3 1.4-7.8 4-10.6 2.8-2.9 6.3-4.3 10.4-4.3 4.2 0 7.6 1.4 10.3 4.3 2.8 2.8 4.1 6.3 4.1 10.6 0 4.4-1.3 8-4 10.7a13.6 13.6 0 0 1 -10.4 4.3c-4.1 0-7.6-1.5-10.3-4.3s-4-6.4-4-10.7zm5.3 0c0 3 .9 5.5 2.6 7.4 1.8 1.8 4 2.8 6.5 2.8 2.6 0 4.8-1 6.5-2.8 1.8-2 2.7-4.3 2.7-7.4 0-3-.9-5.3-2.7-7.2-1.7-2-4-2.9-6.5-2.9s-4.7 1-6.5 2.9a10.2 10.2 0 0 0 -2.6 7.2zm33.1 14h-5.3v-28h5v4.6h.3a7.5 7.5 0 0 1 3.1-3.8c1.7-1 3.3-1.6 5-1.6 1.5 0 2.7.3 3.8.7l-1.6 5.1c-.6-.3-1.7-.4-3-.4-2 0-3.8.8-5.3 2.4a8 8 0 0 0 -2.1 5.6v15.4zm52.6-10.9c0 3.6-1.4 6.5-4 8.7a15 15 0 0 1 -9.7 3.2c-3.4 0-6.4-1-9-3s-4.3-4.7-5.3-8.1l5-2a13 13 0 0 0 3.5 5.8c.9.7 1.8 1.2 2.8 1.7 1 .3 2 .5 3.1.5 2.4 0 4.4-.6 5.9-1.8 1.5-1.3 2.3-3 2.3-5a6 6 0 0 0 -1.9-4.4 18 18 0 0 0 -6.6-3.4 67 67 0 0 1 -6.1-2.4c-4.4-2.2-6.6-5.5-6.6-9.8 0-3 1.2-5.5 3.6-7.7 2.5-2.1 5.5-3.2 9-3.2 3.1 0 5.8.8 8.1 2.4s3.8 3.5 4.6 5.9l-5 2a7 7 0 0 0 -2.7-3.7c-1.3-1-3-1.6-4.9-1.6a8 8 0 0 0 -5.2 1.8 5 5 0 0 0 -2 4.1c0 1.4.5 2.7 1.6 3.7 1.2 1 3.8 2.2 8 3.6 4 1.5 7 3.2 8.8 5.2s2.7 4.6 2.7 7.5zm15 11.4a8 8 0 0 1 -5.7-2.1 7.9 7.9 0 0 1 -2.3-5.9v-15.7h-5v-4.8h5v-8.5h5.3v8.5h6.8v4.8h-6.8v14c0 1.9.3 3.1 1 3.8.8.7 1.6 1 2.5 1l1.2-.1 1.1-.4 1.7 4.7c-1.4.4-3 .7-4.8.7zm12.4-9c0 1.3.6 2.5 1.7 3.4 1.2 1 2.6 1.4 4.1 1.4 2.2 0 4.2-.8 5.9-2.5a7.7 7.7 0 0 0 2.6-5.8c-1.6-1.3-3.9-1.9-6.8-1.9a9 9 0 0 0 -5.4 1.5c-1.4 1-2.1 2.3-2.1 3.9zm6.8-20.4c3.9 0 7 1 9.2 3.2a11 11 0 0 1 3.4 8.5v17.2h-5v-3.8h-.3a10 10 0 0 1 -8.7 4.8c-3 0-5.7-1-7.8-2.8-2-1.8-3-4.1-3-6.8 0-3 1-5.2 3.2-7a14 14 0 0 1 8.8-2.5c3.1 0 5.7.5 7.7 1.7v-1.2c0-1.8-.7-3.4-2.1-4.6a7.4 7.4 0 0 0 -5.1-2 8 8 0 0 0 -7 3.7l-4.6-2.9c2.5-3.6 6.3-5.5 11.3-5.5zm51.3 29.4a8 8 0 0 1 -5.7-2.1 7.9 7.9 0 0 1 -2.3-5.9v-15.7h-5v-4.8h5v-8.5h5.2v8.5h6.9v4.8h-6.9v14c0 1.9.4 3.1 1.1 3.8s1.6 1 2.5 1l1.2-.1 1.1-.4 1.7 4.7c-1.4.4-3 .7-4.8.7zm-32.8-28.5h5v4.6h.2c1.6-3.6 4.8-5.4 9.7-5.4l1 .2v5.4l-2.3-.2c-2.4 0-4.4.8-6 2.3a7.5 7.5 0 0 0 -2.4 5.7v15.4h-5.2zm66.5 28h-5v-3.8h-.2c-.8 1.3-2 2.5-3.8 3.4-1.6.9-3.3 1.4-5.1 1.4-3.4 0-6-1-8-3a12 12 0 0 1 -2.7-8.4v-17.6h5.3v17.3c0 4.6 2.4 6.9 6.9 6.9 2 0 3.8-.9 5.2-2.6a9.3 9.3 0 0 0 2.2-6v-15.6h5.2zm20.2-3.8c2.5 0 4.6-1 6.3-2.9s2.6-4.3 2.6-7.3c0-2.9-.9-5.3-2.6-7.2a8.2 8.2 0 0 0 -6.3-2.9c-2.6 0-4.7 1-6.4 2.9a10.6 10.6 0 0 0 -2.5 7.2c0 3 .8 5.5 2.5 7.4a8.3 8.3 0 0 0 6.4 2.8zm.8 4.8c-2 0-4-.5-5.6-1.4-1.7-.8-3-2-4-3.4h-.1l.2 3.8v12.4h-5.3v-40.4h5v4h.3c1-1.5 2.2-2.7 3.9-3.6 1.7-.8 3.6-1.3 5.6-1.3a12 12 0 0 1 9.4 4.4c2.6 3 4 6.4 4 10.5 0 4.2-1.4 7.7-4 10.6a12 12 0 0 1 -9.4 4.4zm39.3-8.7c0 2.4-1.1 4.5-3.3 6.1a12.6 12.6 0 0 1 -8 2.6 12.3 12.3 0 0 1 -12-8l4.7-2a9 9 0 0 0 3 3.9c1.3 1 2.7 1.4 4.3 1.4 1.7 0 3-.4 4.2-1.1 1.1-.7 1.7-1.6 1.7-2.6 0-1.8-1.4-3-4.1-4l-4.8-1.1c-5.5-1.4-8.2-4-8.2-8 0-2.5 1-4.5 3-6a13 13 0 0 1 8-2.4c2.6 0 4.8.6 6.8 1.8s3.4 2.8 4.2 4.7l-4.7 2a5.7 5.7 0 0 0 -2.6-2.8 7.8 7.8 0 0 0 -7.7 0c-1.1.7-1.6 1.6-1.6 2.6 0 1.6 1.5 2.7 4.5 3.4l4.2 1c5.6 1.4 8.3 4.2 8.3 8.5z"/></g></svg>