<svg height="197" width="325" xmlns="http://www.w3.org/2000/svg" xmlns:xlink="http://www.w3.org/1999/xlink">
  <defs/>
  <defs>
    <linearGradient id="c" x1="100.6%" x2="-1.5%" xlink:href="#a" y1="32.4%" y2="68.4%"/>
    <linearGradient id="j" x1="50%" x2="50%" y1="0%" y2="100%">
      <stop offset="0" stop-color="#218bff"/>
      <stop offset="1" stop-color="#0068ef"/>
    </linearGradient>
    <linearGradient id="g" x1="80.3%" x2="13%" y1="60.3%" y2="38.2%">
      <stop offset="0" stop-color="#e8edff"/>
      <stop offset="1" stop-color="#fff"/>
    </linearGradient>
    <linearGradient id="h" x1="67.3%" x2="32.4%" xlink:href="#a" y1="2.2%" y2="100%"/>
    <linearGradient id="i" x1="20.3%" x2="67.1%" y1="43.4%" y2="67.3%">
      <stop offset="0" stop-color="#1f8aff"/>
      <stop offset="1" stop-color="#006ee6"/>
    </linearGradient>
    <linearGradient id="a">
      <stop offset="0" stop-color="#0d54d9"/>
      <stop offset="1" stop-color="#061872"/>
    </linearGradient>
    <linearGradient id="k" x1="20.3%" x2="67.1%" y1="39.9%" y2="76.7%">
      <stop offset="0" stop-color="#1f8aff"/>
      <stop offset="1" stop-color="#0068ef"/>
    </linearGradient>
    <path id="b" d="M2 0h321a2 2 0 012 2v195H0V2a2 2 0 012-2z"/>
    <path id="f" d="M194.362 104.527H4.659A4.642 4.642 0 01.01 99.89V5.162A4.642 4.642 0 014.66.527h189.703a4.642 4.642 0 014.648 4.635v94.73a4.642 4.642 0 01-4.648 4.635z"/>
    <filter id="e" height="122.1%" width="111.6%" x="-5.8%" y="-9.1%">
      <feOffset dy="2" in="SourceAlpha" result="shadowOffsetOuter1"/>
      <feGaussianBlur in="shadowOffsetOuter1" result="shadowBlurOuter1" stdDeviation="3.5"/>
      <feColorMatrix in="shadowBlurOuter1" values="0 0 0 0 0.0980392157 0 0 0 0 0.188235294 0 0 0 0 0.533333333 0 0 0 1 0"/>
    </filter>
    <mask id="d" fill="#fff">
      <use fill-rule="evenodd" xlink:href="#b"/>
    </mask>
  </defs>
  <title>
    Real-Time Sales
  </title>
  <g fill="none" fill-rule="evenodd">
    <use fill="url(#c)" xlink:href="#b"/>
    <ellipse cx="158.5" cy="137" fill="#fff" fill-opacity=".074" mask="url(#d)" rx="158.5" ry="137"/>
    <g mask="url(#d)">
      <g fill-rule="nonzero" transform="translate(39 36)">
        <use fill="#000" filter="url(#e)" xlink:href="#f"/>
        <use fill="url(#g)" xlink:href="#f"/>
      </g>
      <path d="M49.01 44.527h12v6h-12zm88 9h89v6h-89zm0 17h89v6h-89zm0 17h89v6h-89zm0 16h51v6h-51zm-88-43h12v6h-12zm0 16h12v6h-12zm0 17h12v6h-12zm0 16h12v6h-12zm0 16h12v6h-12z" fill="#b3cdfa" fill-rule="nonzero"/>
      <path d="M26.487.03v27.342l.014.014 19.271 19.345a27.268 27.268 0 008.023-19.278c0-.028.004-.054.004-.081C53.8 12.272 41.571.03 26.487.03z" fill="url(#h)" transform="translate(72 47.5)"/>
      <g fill-rule="nonzero">
        <path d="M80.059 55.54a27.27 27.27 0 00-8.025 19.307l27.31.066V47.557c-7.529 0-14.345 3.05-19.285 7.983z" fill="#002b59"/>
        <path d="M27.348 26.542h-.015L.024 26.476c0 .018-.003.035-.003.052 0 15.101 12.229 27.343 27.312 27.343 7.53 0 14.345-3.051 19.286-7.984z" fill="url(#i)" transform="translate(72 47.5)"/>
        <path d="M256.319 206.527s21.016-10.192 37.367-18.44c6.213-3.136 8.224-11.066 4.338-16.852l-30.214-38.08c-4.16-5.241-11.742-6.167-17.033-2.079-5.91 4.566-6.402 13.33-1.041 18.534l23.904 23.202a2.42 2.42 0 01-.453 3.818l-23.553 19.407z" fill="#0063cf"/>
        <path d="M236.01 104.689s8.216 5.367 4.913 19.492c-1.342 5.738 22.087-8.727 22.087-8.727s-3.21-6.532-2.039-9.932l-17.614-4.995z" fill="#ffcebd"/>
        <path d="M236.01 104.73s3.404 2.302 4.915 7.797l3.98-2.781 13.105-5.978-14.735-3.241-7.265 4.204z" fill="#a58877" opacity=".4"/>
        <path d="M241.127 71.534s-4.839 1.238-5.756 3.256l-1.446 3.176a21.88 21.88 0 00-1.947 8.137l-.003.055-4.798 9.727a1.264 1.264 0 00.784 1.85l2.259.375-.703 9.923c-.333 3.393 3.435 5.676 6.346 3.845l9.03-4.481 16.643-1.932s-.453-8.434 3.218-11.57c0 0 9.478-22.84-23.627-22.36z" fill="#ffcebd"/>
        <path d="M266.414 77.044a6.625 6.625 0 00-.995-2.01c-2.869-3.857-8.338-2.778-12.43-3.578-3.87-.756-7.476-2.516-11.316-3.41-3.841-.894-8.272-.764-11.237 1.825-1.417 1.238-1.973 3.184-1.246 4.948.427 1.036 1.16 1.911 1.883 2.768.436.517.877 1.039 1.414 1.45.577.44 1.247.739 1.91 1.034 1.714.763 7.021 1.483 7.851 3.316.998 2.205-2.229 6.78-2.629 9.08-.547 3.145-.898 6.337-1.346 9.498-.05.35-.107.717-.33.992-.466.575-1.363.456-2.085.282a53.927 53.927 0 00-.826-3.652c-.27-1.025-.632-2.13-1.527-2.705-1.853-1.192-4.714-.527-5.638 1.458-.436.934-.467 1.998-.49 3.028l-.184 8.06c-.028 1.225-.011 2.578.805 3.496.9 1.012 2.424 1.114 3.782 1.144 2.403.052 4.72-1.303 7.022-2.127 2.05-.739 3.926-1.893 5.698-3.16 1.327-.948 2.642-2.007 3.405-3.445.763-1.439.847-3.346-.2-4.595-1.23-1.467-3.737-1.797-4.398-3.781-.607-1.818.457-4.265 1.453-5.723.651-.953 1.524-1.938 2.681-1.99.898-.042 1.743.528 2.232 1.28 1.453 2.236 1.28 5.88 1.64 8.425.354 2.512 1.07 4.853 3.546 5.757 2.083.761 4.95 1.262 6.988.063 1.945-1.144 2.346-4.178 2.928-6.247a58.583 58.583 0 002.17-17.508c-.038-1.331-.14-2.712-.531-3.973z" fill="#002b59"/>
        <path d="M49.844 167.374l-.834-75.93C50.034 64.487 64.6 53.905 75.036 49.78c6.216-2.457 13.289-1.251 18.294 3.185 4.894 4.338 10.275 10.693 10.137 17.579-.164 8.158-5.692 30.708-4.806 41.846 1.393 17.527 6.35 53.549 6.35 53.549-9.468 11.153-27.892-8.15-55.167 1.435z" fill="url(#j)" transform="translate(176 68)"/>
        <path d="M244.898 135.593l-21.214 24.796a2.362 2.362 0 01-3.754-.216l-23.86-25.162.558-3.717a7.52 7.52 0 00-1.626-5.893l-4.563-5.552-14.429-10.322v.759c0 1.99.807 3.894 2.235 5.28l5.508 5.339-3.445 6.89a10.323 10.323 0 00-.649 7.597 4.087 4.087 0 002.424 2.626l4.837 1.894s14.024 25.502 23.057 41.02c3.432 5.896 11.294 7.391 16.709 3.24l35.358-31.865c4.867-4.386 5.316-11.866 1.008-16.803-4.812-5.514-13.396-5.472-18.154.089z" fill="#ffcebd"/>
        <path d="M267.23 114.54c-3.543-1.31-15.097-4.618-28.214 1.867-.644.318-1.037 1.023-1.004 1.764l.469 10.356s16.933-11.87 27.19-9.141c.569.151 1.15-.189 1.357-.76l.906-2.502c.232-.642-.082-1.354-.704-1.584z" fill="#002b59"/>
        <path d="M181.924 138.034a4.06 4.06 0 01-2.41-2.605 10.22 10.22 0 01.645-7.54l.045-.088a38.157 38.157 0 016.847 9.125c.999 1.861 1.863 3.836 3.293 5.393 1.385 1.506 3.213 2.523 4.776 3.844 5.558 4.694 7.258 12.684 12.465 17.763 4.292 4.187 11.008 6.55 12.695 12.297 7.945-5.432 16.063-11.032 21.621-18.88 3.254-4.594 5.631-9.953 9.968-13.547 3.646-3.022 8.043-4.356 12.724-4.707 1.727 4.475.638 9.731-3.136 13.125l-35.169 31.619c-5.386 4.12-13.205 2.636-16.62-3.216-8.984-15.398-22.933-40.704-22.933-40.704l-4.81-1.879z" fill="#a58877" opacity=".4"/>
        <path d="M13.01 76.051s11.463 20.647 20.7 36.69c3.51 6.097 11.55 7.643 17.087 3.35l36.157-32.943c4.977-4.535 5.436-12.269 1.031-17.373a12.18 12.18 0 00-18.564.092L47.727 91.503a2.4 2.4 0 01-3.84-.224L23.072 68.634l-10.06 7.417z" fill="url(#k)" transform="translate(176 68)"/>
      </g>
    </g>
  </g>
</svg>
