<svg height="197" width="325" xmlns="http://www.w3.org/2000/svg" xmlns:xlink="http://www.w3.org/1999/xlink">
  <defs/>
  <defs>
    <linearGradient id="b" x1="100.6%" x2="-1.5%" y1="32.4%" y2="68.4%">
      <stop offset="0" stop-color="#0d54d9"/>
      <stop offset="1" stop-color="#061872"/>
    </linearGradient>
    <linearGradient id="d" x1="50%" x2="50%" y1="0%" y2="100%">
      <stop offset="0" stop-color="#288fff"/>
      <stop offset="1" stop-color="#0068ef"/>
    </linearGradient>
    <linearGradient id="e" x1="100%" x2="21.4%" y1="36.3%" y2="69.5%">
      <stop offset="0" stop-color="#2c91ff"/>
      <stop offset="1" stop-color="#0068ef"/>
    </linearGradient>
    <linearGradient id="f" x1="118.9%" x2="38.1%" y1="-14%" y2="60.4%">
      <stop offset="0" stop-color="#9fd9e6"/>
      <stop offset="1" stop-color="#fff"/>
    </linearGradient>
    <linearGradient id="g" x1="58.9%" x2="34.1%" y1="80.5%" y2="28.6%">
      <stop offset="0" stop-color="#ffb79e"/>
      <stop offset="1" stop-color="#ffded2"/>
    </linearGradient>
    <path id="a" d="M2 0h321a2 2 0 012 2v195H0V2a2 2 0 012-2z"/>
    <mask id="c" fill="#fff">
      <use fill-rule="evenodd" xlink:href="#a"/>
    </mask>
  </defs>
  <title>
    Dedicated Support
  </title>
  <g fill="none" fill-rule="evenodd">
    <use fill="url(#b)" xlink:href="#a"/>
    <g fill-rule="nonzero" mask="url(#c)">
      <path d="M269.054-7.596h41.921v203.887h-41.921zm-63.548 83.755h41.921v120.132h-41.921zm-62.001 48.504h41.465v72.194h-41.465zm-66.148 29.626h41.465v42.568H77.357zm-62.856 16.849h41.465v25.719H14.501z" fill="url(#d)" opacity=".345"/>
      <path d="M208.014 60s12.186 3.405 14.71 25.858 6.166 40.86 6.166 40.86L257 122.85l-1.027 9.261s-10.761 2.887-24.815 6.178c-13.758 3.221-18.395-5.257-19.923-10.267-1.53-5.01-11.235-38.59-11.235-38.59z" fill="#002b60"/>
      <path d="M161 131s31.258-7.923 46.766-25.674C221.644 89.44 215.762 66 215.762 66z" fill="#002b60"/>
      <path d="M46 125.278s28.255-3.972 51.297 6.694C121.599 143.221 169 104 169 104s-81.427 7.963-105.017 13.748c-6.341 1.555-17.983 7.53-17.983 7.53z" fill="#004579"/>
      <path d="M75 62.95s-1.185 3.272-2.015 3.732S66.073 73 66.073 73s-.755-1.752.25-2.534c1.005-.784 1.416-2.36 1.416-2.36l-9.054.48s-6.02.528-6.667.499c-.645-.029-1.182-1.083-.972-1.138 1.292-.342 7.412-1.69 7.412-1.69s-5.809-.172-6.456-.2c-.645-.028-.773-.86-.112-1.163.66-.302 2.043-1.614 3.021-1.736.976-.123 6.45-.415 6.45-.415s3.378-.398 5.496-.636c2.117-.236 3.418-.345 3.418-.345L72.5 61z" fill="#ffcebd"/>
      <path d="M93.143 149.029c-4.559 14.508-8.313 47.344-8.267 61.86L34.07 153.925 27 158.712s40.078 66.46 43.717 72.435c3.639 5.976 20.745 10.51 29.77-2.754C109.51 215.127 153 146.359 153 146.359s-36.91-1.803-59.857 2.67z" fill="#002b60"/>
      <path d="M34 154.371l-.032-4.265-5.322-.034-.046 2.163L21.14 150l-6.884.1s-.8 1.332.428 1.565c.35.07 6.962 1.808 6.962 1.808l5.02 3.527z" fill="#002b60"/>
      <path d="M115.52 166s-9.794 3.058 3.292 6.703c10.777 3.002 17.646 2.2 17.646 2.2l2.542-4.224z" fill="#004579"/>
      <path d="M152.372 147s22.208-21.693 46.984-41.56C214.341 93.422 217 65.87 217 65.87L203.71 57l-1.032.244s-17.076 20.652-51.196 17.265C123.918 97.276 94 135.968 94 135.968z" fill="#fff"/>
      <path d="M142.487 148.488s6.046-13.312 16.71-16.996C170.782 127.49 180 114 180 114s-8.796 9.457-20.584 16.062C147.626 136.668 138 149 138 149zM201.983 58l-.65.725L201 70.761s2.607.956 9-.954C206.474 67.684 201.983 58 201.983 58z" fill="#cadbff"/>
      <g fill="#002b60">
        <path d="M202 58s.247 48.698-49.594 54.141C55.246 122.752 25 135 25 135s10.875-21.13 69.922-30.609C168.026 92.658 202 58 202 58z"/>
        <path d="M202 58.61l-48.4-24.373s-9.895-4.879-20.317-.226C122.862 38.664 71 61.967 71 61.967l1.893 5.756L143.59 45.02 183.112 74z"/>
        <path d="M111 109s26.83-37.417 48.949-50.976c26.357 16.794 15.19-.449 19.221-.916 21.5-2.493 22.83 0 22.83 0S198.058 84.76 166.81 96C135.563 107.237 111 109 111 109z"/>
      </g>
      <path d="M163.873 124.4c-10.289 8.2-32.515 16.6-32.515 16.6s-6.19-4.508-9.084-5.475c-2.892-.964-6.274-1.456-6.274-1.456s7.327-8.078 10.242-9.926c2.913-1.85 6.752-2.276 6.752-2.276l10.796-2.091s30.37-3.576 20.083 4.624z" fill="#cadbff"/>
      <path d="M197.008 38s1.405 1.297 1.992 2.934c-.903 1.732-2.84 2.73-2.84 2.73s1.543 9.962-7.548 23.364C174.658 87.597 122.007 102 122.007 102L110 97.673l7.533-11.87s50.11-5.315 66.044-23.718c11.007-12.714 10.469-18.948 10.469-18.948s-1.678-2.02-2.368-3.935c3.349-.267 5.33-1.202 5.33-1.202z" fill="url(#e)" transform="translate(14 32)"/>
      <path d="M197.544 62.447s-4.266 6.057-10.309 10.074c.746 3.79 2.036 9.22 2.036 9.22s-2.567 1.505-9.392.734C179.104 87.05 172.392 100.321 166 106c21.225-7.302 28.293-23.306 31.157-31.183C200.02 66.938 201 59 201 59z" fill="#2b6088" opacity=".53"/>
      <path d="M211 36h-38l37.242 2z" fill="#2465e8"/>
      <path d="M293.553 115.914s2.58.108 4.902-1.139c.585.705.107 2.131-2.649 2.945-2.28.673-2.253-1.806-2.253-1.806z" fill="#ffcebd"/>
      <path d="M.236 44.265L.38 30.352 4.132.737l31.444 3.38-4.722 44.12z" fill="url(#f)" transform="translate(259.2 91.4)"/>
      <path d="M268.066 118.699l8.39-3.216-8.574-2.693a9.93 9.93 0 00.184 5.909z" fill="#86c0ff" opacity=".41"/>
      <path d="M277.255 115.866l-8.968 3.436a9.908 9.908 0 0012.59 5.472z" fill="#005fd5" opacity=".69"/>
      <path d="M277.141 115.025l.926-9.49a9.847 9.847 0 00-4.379.704c-2.742 1.122-4.706 3.338-5.613 5.938z" fill="#0068ef"/>
      <path d="M277.768 115.424l3.701 9.106c4.872-2.174 7.18-7.844 5.154-12.832a9.918 9.918 0 00-7.9-6.102z" fill="#049"/>
      <path d="M289.818 142.075l-30.641-3.208a3.06 3.06 0 01-2.723-3.365l4.54-43.584a3.058 3.058 0 013.356-2.73l30.641 3.209a3.061 3.061 0 012.722 3.365l-4.537 43.584a3.058 3.058 0 01-3.358 2.73zM260.2 135.09l29.344 3.072 4.373-41.991-29.344-3.072z" fill="#002b60"/>
      <path d="M276.276 138.626a.828.828 0 01-.91.74l-1.492-.157a.828.828 0 01-.737-.912.828.828 0 01.91-.739l1.491.156a.83.83 0 01.738.912z" fill="#eff9fa"/>
      <path d="M295.266 118.99s-4.847-.376-5.77-.569c-.92-.193-1.606 1.058-1.606 1.058s-1.517.147-1.695 1.067c-.18.923-.26 1.022-.384 1.576-.124.555.474 1.388 1.345 1.717.395.15 7.454 2.494 7.454 2.494s1.083.325 1.798-.65c.712-.976.562-5.55.48-6.374-.083-.826-1.535-1.418-1.535-1.418z" fill="#ffcebd"/>
      <path d="M.46 24.193s3.742-1.355 4.9-5.523c1.763-6.344 7.223-5.201 7.223-5.201s2.358 3.483 2.24 7.055c-.107 3.235.53 7.014 1.629 8.053 2.322 2.207 10.675 4.198 10.675 4.198s-11.876.172-18.108 3.414C3.087 31.856.46 24.193.46 24.193z" fill="url(#g)" transform="translate(202 33)"/>
      <path d="M228.652 65.724a7015 7015 0 01-8.274-2.077c-3.457-.87-3.568-4.856-3.568-4.856l-.403-6.154s-1.152-.983-1.81-2.494c-.27-.609-.475-3.51 2.414-3.81 4.276-.457 3.471-10.19 3.471-10.19l5.744-.06 4.1 3.688s2.181 5.762 1.78 7.86a1419.46 1419.46 0 003.119 7.18s-.15.821-1.145.64c-1.245-.23-2.404-.089-2.404-.089s-.442 1.435-.01 2.93c-.104.495-.283.708-.801 1.132.3.193.487.55.374 1.08-1.344 1.891-.138 2.864-.558 4.205-.143.452-1.022 1.272-2.03 1.015z" fill="#ffcebd"/>
      <g fill="#002b60">
        <path d="M211.755 36.145c15.129-4.144 19.488-3.13 19.944.749.064.725-.339 2.256-1.372 2.877-4.26-1.517-8.427-2.566-7.955.556-.015.957 1.728 11.84-1.892 11.278-.389-1.482-1.73-5.54-4.726-4.788-1.759.443-1.09 5.52-8.543 5.095 1.08-5.797 2.964-13.901 4.544-15.767zm18.823 13.165c-.078.217-.128.411-.993.328a11.073 11.073 0 01-2.725-.665c-.2-.079 1.403-.176 3.866-.998.693-.231.209.132-.048.424.088.156.02.58-.1.911zM284 198.113l3.89 3.887 4.103-3.203-1.345-1.654 7.14-2.847 5.212-4.252s-.234-1.483-1.33-.914c-.306.164-6.493 2.862-6.493 2.862l-8.871.64z"/>
        <path d="M93.77 136l120.168 10.648L289 191.536 282.715 197s-61.122-23.863-74.457-31.88c-39.565-1.077-58.474 6.03-76.08 5.866C79.468 170.49 93.77 136 93.77 136z"/>
      </g>
    </g>
  </g>
</svg>
