<svg height="197" width="325" xmlns="http://www.w3.org/2000/svg" xmlns:xlink="http://www.w3.org/1999/xlink">
  <defs/>
  <defs>
    <linearGradient id="c" x1="100.6%" x2="-1.5%" y1="32.4%" y2="68.4%">
      <stop offset="0" stop-color="#0d54d9"/>
      <stop offset="1" stop-color="#061872"/>
    </linearGradient>
    <linearGradient id="a">
      <stop offset="0" stop-color="#2c91ff"/>
      <stop offset="1" stop-color="#0068ef"/>
    </linearGradient>
    <linearGradient id="f" x1="50%" x2="50%" xlink:href="#a" y1="1.2%" y2="70.6%"/>
    <linearGradient id="g" x1="64%" x2="40.3%" xlink:href="#a" y1="50%" y2="60.9%"/>
    <linearGradient id="e" x1="-12.4%" x2="50%" xlink:href="#a" y1="70.6%" y2="70.6%"/>
    <linearGradient id="j" x1="80.3%" x2="13%" y1="68%" y2="29.3%">
      <stop offset="0" stop-color="#e8edff"/>
      <stop offset="1" stop-color="#fff"/>
    </linearGradient>
    <linearGradient id="m" x1="50%" x2="50%" y1="50%" y2="-167.4%">
      <stop offset="0" stop-color="#d9e2ff"/>
      <stop offset="1" stop-color="#fff"/>
    </linearGradient>
    <path id="l" d="M259.304 173H4.696C2.103 173 0 170.985 0 168.5s2.103-4.5 4.696-4.5h254.608c2.593 0 4.696 2.015 4.696 4.5s-2.103 4.5-4.696 4.5z"/>
    <path id="i" d="M11.56 53.849h58.983c1.601 0 2.805-1.472 2.496-3.054L64.166 5.337A2.548 2.548 0 0061.67 3.27H2.686C1.085 3.27-.119 4.742.19 6.323l8.873 45.459a2.548 2.548 0 002.496 2.067z"/>
    <path id="b" d="M2 0h321a2 2 0 012 2v195H0V2a2 2 0 012-2z"/>
    <filter id="h" height="145.5%" width="131.5%" x="-15.8%" y="-18.8%">
      <feOffset dy="2" in="SourceAlpha" result="shadowOffsetOuter1"/>
      <feGaussianBlur in="shadowOffsetOuter1" result="shadowBlurOuter1" stdDeviation="3.5"/>
      <feColorMatrix in="shadowBlurOuter1" values="0 0 0 0 0 0 0 0 0 0 0 0 0 0 0 0 0 0 0.5 0"/>
    </filter>
    <filter id="k" height="355.6%" width="108.7%" x="-4.4%" y="-105.6%">
      <feOffset dy="2" in="SourceAlpha" result="shadowOffsetOuter1"/>
      <feGaussianBlur in="shadowOffsetOuter1" result="shadowBlurOuter1" stdDeviation="3.5"/>
      <feColorMatrix in="shadowBlurOuter1" values="0 0 0 0 0 0 0 0 0 0 0 0 0 0 0 0 0 0 0.5 0"/>
    </filter>
    <mask id="d" fill="#fff">
      <use fill-rule="evenodd" xlink:href="#b"/>
    </mask>
  </defs>
  <title>
    24/7 Support
  </title>
  <g fill="none" fill-rule="evenodd">
    <use fill="url(#c)" xlink:href="#b"/>
    <ellipse cx="210.5" cy="137" fill="#fff" fill-opacity=".074" mask="url(#d)" rx="158.5" ry="137"/>
    <g mask="url(#d)">
      <g fill-rule="nonzero">
        <path d="M202.168 154.444c-6.726 2.417-14.837 2.17-20.956-1.818-6.015-3.92-11.495-6.752-18.897-6.615-6.613.123-12.082 3.755-18.487 4.528-5.08.613-10.24-1.637-13.922-5.246-3.594-3.523-5.981-8.894-4.418-13.714.818-2.523 2.606-4.605 3.627-7.05 2.353-5.642-3.844-9.045-2.303-14.983 1.31-5.05 6.765-8.653 6.684-13.875-.06-3.823-2.973-6.786-3.998-10.322-1.035-3.569-.806-7.565 1.019-10.825 1.341-2.395 3.496-4.356 5.993-5.437 2.242-.97 4.747-.99 6.482-2.98 3.09-3.549 4.223-7.394 8.463-9.988 3.59-2.197 8.33-2.336 12.448-1.953 9.151.852 18.032 5.76 23.187 13.576 1.826 2.77 3.144 5.605 3.19 8.897.05 3.599.05 7.219 2.22 10.279 1.821 2.569 4.746 4.072 7.646 5.23 2.9 1.16 5.94 2.098 8.486 3.924s4.568 4.806 4.27 7.958c-.248 2.638-2.045 4.93-2.284 7.57-.435 4.799 4.114 8.284 6.92 12.17 3.927 5.441 4.578 13.135 1.622 19.177-3.403 6.956-9.586 8.525-16.065 11.143-.306.123-.615.241-.927.354z" fill="#0b2d4e"/>
        <path d="M153 65.043c2.239-1.318 4.84-1.922 7.425-2.026 2.595-.1 5.194.237 7.713.868 5.052 1.282 9.653 4.312 12.861 8.479 1.586 2.095 2.814 4.479 3.541 7.022.732 2.551.881 5.218.851 7.828-.026 2.615-.21 5.216-.125 7.789.054 1.277.21 2.552.596 3.744.38 1.187 1.038 2.283 2.011 2.998.96.734 2.195 1.044 3.442 1.195 1.25.15 2.557.157 3.86.332 2.58.35 5.204.969 7.452 2.46 1.104.743 2.098 1.78 2.581 3.088.501 1.308.4 2.736.065 4.04-.39 1.318-1.131 2.423-1.647 3.576a11.454 11.454 0 00-.961 3.66c-.239 2.545.41 5.096 1.307 7.51.882 2.433 1.942 4.832 2.56 7.388.303 1.275.487 2.589.466 3.905a12.38 12.38 0 01-.679 3.865 13.22 13.22 0 01-4.518 6.236 13.135 13.135 0 004.347-6.294c.817-2.467.708-5.143.033-7.624-.646-2.502-1.723-4.872-2.646-7.312-.937-2.423-1.651-5.047-1.437-7.723.101-1.33.433-2.642.963-3.866.54-1.22 1.259-2.308 1.6-3.502.3-1.204.379-2.486-.065-3.625-.427-1.142-1.311-2.07-2.343-2.76-2.096-1.383-4.654-1.99-7.163-2.315-1.259-.166-2.545-.166-3.86-.316-1.3-.152-2.677-.472-3.797-1.321-1.125-.834-1.854-2.089-2.256-3.369-.41-1.289-.565-2.624-.615-3.943-.075-2.634.122-5.234.158-7.824.04-2.585-.097-5.177-.794-7.645a21.657 21.657 0 00-3.377-6.853 23.334 23.334 0 00-12.502-8.472c-2.473-.683-5.044-1.077-7.616-1.038-2.565.044-5.162.58-7.431 1.845z" fill="#154d85"/>
        <path d="M185.973 122.583c.245 5.882-1.132 10.3-6.565 13.21-4.327 2.318-9.508 3.078-14.283 3.194-8.009.196-16.932-1.85-22.923-7.42-1.087-1.011-2.13-2.25-2.209-3.726-.071-1.34.674-2.603.74-3.944.11-2.262-1.666-4.135-2.46-6.259-1.048-2.804-.335-5.935.607-8.777.941-2.841 2.12-5.71 1.979-8.697-.184-3.875-2.535-7.258-4.418-10.66-1.882-3.401-3.364-7.54-1.755-11.077 1.06-2.33 3.588-4.123 6.171-4.407 2.73-.3 5.181 2.789 6.93 4.49a42.775 42.775 0 007.792 6.002c3.9 2.343 8.18 4.072 11.849 6.757 2.22 1.625 4.6 3.855 5.66 6.444 1.194 2.916-.897 5.74 1.631 8.423 1.631 1.73 4.136 2.32 6.108 3.657 4.222 2.865 4.953 8.145 5.146 12.79z" fill="#061f33"/>
        <path d="M109.555 131.43c5.525-8.564 8.964-19.076 4.162-28.746-.486-.98-1.071-2.05-2.105-2.396-2.223-.743-5.238.056-7.17 1.197-6.705 3.957-10.808 11.402-14.574 18.027-3.913 6.882-7.311 14.047-11.244 20.918-1.593 2.783-3.201 5.604-4.055 8.698-.748 2.71-.83 5.814.19 8.466 4.415 11.465 16.553-2.58 20.247-6.822a169.536 169.536 0 0014.549-19.342z" fill="url(#e)" transform="translate(33 25)"/>
        <path d="M65.681 28.59c1.597-6.565 2.425-13.282-1.194-17.754-1.634-2.02-4.545-3.426-6.927-4.426-4.648-1.95-9.398-4.572-14.373-5.422C37.942.092 32.109-.46 26.882.821c-3.32.814-6.426 2.321-9.395 3.947-2.576 1.41-5.736 2.625-6.987 5.25a175.477 175.477 0 00-7.95 19.657c-1.867 5.575-3.915 11.42-.974 17.07.953 1.83 2.337 3.398 3.427 5.147 1.214 1.948 1.667 3.779 1.826 6.026.364 5.129.222 10.273.207 15.408-.004 1.48.016 3.019.683 4.35 1.316 2.623 4.892 2.66 7.467 2.655l25.469-.042c3.532-.006 6.23.414 9.547 1.076 2.79.556 5.186-.811 6.525-3.332 1.267-2.387 1.364-5.175 1.5-7.857a165.078 165.078 0 014.548-30.988c.706-2.878 1.945-6.642 2.907-10.599z" fill="url(#f)" transform="translate(128 116.7)"/>
        <path d="M174.019 126.212c1.998-3.264 2.452-7.343-.165-10.487-1.197-1.439-3.314-1.6-5.125-1.632a44.313 44.313 0 00-10.604 1.09c-3.308.752-6.68 2.024-8.113 5.267-1.064 2.41-.692 5.197.71 7.4 1.273 2.003 3.386 3.484 5.744 4.03 3.806.88 8.262.76 11.894-.72 2.275-.927 4.316-2.753 5.659-4.948zM137.89 87.84c-4.515 4.851-.42 16.707 6.78 14.992 7.738-1.844 6.574-14.438-.422-16.506-2.729-.806-4.905-.049-6.358 1.513z" fill="#0068ef"/>
      </g>
      <path d="M201.126 154.752c4.677.597 9.603.186 13.78-2.001 5.318-2.785 7.979-7.89 8.089-13.764.08-4.256-.744-8.691-3.31-12.085-2.792-3.69-7.47-5.958-9.206-10.247-1.124-2.777-.855-6.56 1.368-8.708 1.415-1.369 2.522-2.911 2.34-4.962-.267-3.018-2.473-5.917-4.937-7.547-3.613-2.39-8.108-3.263-12.336-3.8-2.863-.365-5.717-1.17-6.603-4.256-.478-1.665-.383-3.421-.473-5.132-.19-3.649-.457-7.298-1.002-10.913-.628-4.167-3.332-8.197-6.348-11.069a22.488 22.488 0 00-1.348-1.183c-7.776-6.303-22.17-8.536-30.746-2.695-2.925 1.992-4.974 5.04-5.625 8.525-.436 2.329-1.066 2.83-3.34 3.536-4.131 1.283-8.82 2.193-12.1 5.225-2.566 2.372-3.746 5.963-3.404 9.408.436 4.399 3.51 6.503 5.71 9.99 2.247 3.558.48 8.036-2.13 10.973-2.009 2.262-4.86 3.914-5.996 6.719-1.044 2.58-.353 5.564.909 8.045.511 1.006 1.112 1.966 1.564 3 1.375 3.145 1.233 6.915-.374 9.948" stroke="#0b2d4e" stroke-width="4"/>
      <g fill-rule="nonzero">
        <path d="M182.354 135.797a646.355 646.355 0 014.326 7.754c2.885 5.27 8.242 16.982-.334 19.875-4.32 1.457-6.792.032-9.648-3.054a178.376 178.376 0 01-27.32-38.809c-2.718-5.227-9.934-18.848-1.17-21.96 2.768-.983 5.958-.754 8.55.613 1.185.625 2.236 1.467 3.24 2.345 6.326 5.53 10.83 12.667 14.837 19.904 2.476 4.473 5.011 8.896 7.52 13.332z" fill="url(#g)" transform="translate(33 25)"/>
        <path d="M167.268 128.331c2.577-.802 4.7-2.356 5.495-4.826.722-2.242-.416-4.765-.619-7.027a41.614 41.614 0 01-.072-6.52c.135-2.007.333-4.098.015-6.099-.18-1.143-.828-.948-2.02-1.402s-2.53-.459-3.826-.455c-2.652.006-9.567-.181-11.207 2.078-.752 1.036-.812 2.341-.847 3.575-.043 1.49-.315 3.42-.567 5.5-.112.925-.043 1.847-.19 2.767-.163 1.029-.566 2.015-.919 3.002-1.334 3.729-.085 7.275 4.072 8.982 2.982 1.225 7.24 1.498 10.685.425z" fill="#ffcebd"/>
        <path d="M171.833 103.85c-.176-1.138-.807-.943-1.97-1.395-1.16-.452-2.465-.457-3.729-.453-2.586.006-9.327-.18-10.925 2.068-.734 1.032-.792 2.33-.827 3.559-.042 1.483-.307 3.404-.552 5.473-.11.921-.042 1.84-.184 2.754-.122.78-.379 1.536-.646 2.285 2.507.922 5.338 1.128 7.953.49 4.712-1.149 8.28-4.053 10.824-7.83.013-.293.022-.587.041-.88.133-1.998.325-4.08.015-6.07z" fill="#f09e82"/>
        <path d="M175 88.536c-.022-3.46-.521-6.742-1.45-9.467-4.013-11.758-19.335-14.663-28.562-6.223-10.29 9.413-6.352 31.918 4.486 39.823 2.897 2.114 6.835 2.857 10.355 1.953 10.648-2.734 15.237-15.278 15.17-26.086z" fill="#ffcebd"/>
        <path d="M172.077 88.572c4.169-2.505 5.452 3.84 4.735 6.998-.296 1.304-.765 2.576-1.501 3.649-.992 1.445-3.83 3.842-5.463 2.261-.742-.717-.818-1.936-.841-3.022-.061-2.91.243-8.187 3.07-9.886z" fill="#f8a17a"/>
        <path d="M157.36 109a24.11 24.11 0 01-3.36-.237l.2-1.306c4.08.576 8.15.032 11.767-1.574.983-.436 1.815-.894 2.546-1.401a11.708 11.708 0 003.298-3.482l1.189.667a13.061 13.061 0 01-3.679 3.884c-.803.557-1.71 1.057-2.775 1.53-2.863 1.27-5.99 1.919-9.186 1.919z" fill="#0068ef"/>
        <path d="M150.789 106.093c1.682-1.552 5.423-1.419 6.656.192.914 1.194.635 2.71-.371 3.72-1.19 1.193-2.663 1.124-4.148.764-1.86-.45-4.164-2.806-2.137-4.676z" fill="#0068ef"/>
        <path d="M174.486 78.674c-4.186-12.4-20.175-15.464-29.802-6.563-2.127 1.966-3.663 4.48-4.684 7.303.215.321.455.643.743.966 1.32 1.48 3.144 2.448 4.978 3.268 5.36 2.398 11.137 3.804 16.94 4.857.428.077.858.153 1.287.235 1.598.305 3.184.686 4.58 1.482 3.943 2.25 2.247 7.197 5.137 9.365.261.196.525.323.79.413 1.067-3.693 1.567-7.615 1.544-11.342-.022-3.649-.543-7.11-1.513-9.984z" fill="#f09e82"/>
        <path d="M164.86 86.76c1.472.557 2.92 1.188 4.12 2.205 3.394 2.876.995 7.574 3.398 10.203 2.13 2.33 5.364-.749 6.212-2.9 1.56-3.963 1.469-8.374 1.354-12.644-.065-2.38-.134-4.796-.818-7.073-.746-2.485-2.199-4.702-3.929-6.608-4.995-5.502-12.534-8.362-19.832-7.893-5.708.367-15.72 5.263-11.246 12.681 1.02 1.693 2.601 2.95 4.216 4.06 4.716 3.247 9.987 5.564 15.34 7.53.393.145.79.29 1.186.44z" fill="#0b2d4e"/>
        <path d="M141.927 61.194c-6.255 1.674-8.673 13.968-1.694 16.416 7.498 2.63 12.776-8.701 7.854-14.253-1.92-2.165-4.147-2.701-6.16-2.163z" fill="url(#f)" transform="translate(33 25)"/>
        <path d="M177.013 88.044c-4.487.695-7.25 9.886-2.627 12.416 4.968 2.718 9.631-5.467 6.708-10.181-1.14-1.839-2.637-2.46-4.081-2.235z" fill="#006ade"/>
        <path d="M144.54 62l-1.7-.195c1.153-9.886.662-22.517-8.22-26.552-4.207-1.91-16.254-4.03-21.555 3.072A17.101 17.101 0 00112 39.632c3.288-10.071 18.79-7.985 23.331-5.923 9.817 4.46 10.426 17.846 9.209 28.291z" fill="url(#f)" transform="translate(33 25)"/>
        <path d="M110.703 182.922h35.157v6.927h-35.157z" fill="#c2ccef"/>
        <path d="M116.736 183.594l-8.873-45.459a2.548 2.548 0 00-2.496-2.066H46.383c-.854 0-1.585.425-2.044 1.055l-.008-.007-2.723 3.24 2.416-.533 8.736 44.757a2.548 2.548 0 002.496 2.067h58.983c1.602 0 2.805-1.472 2.497-3.054z" fill="#c2ccef"/>
        <g transform="translate(41 136)">
          <use fill="#000" filter="url(#h)" xlink:href="#i"/>
          <use fill="url(#j)" xlink:href="#i"/>
        </g>
        <path d="M71.112 163.433c.544 3.066 3.456 5.552 6.502 5.552 3.047 0 5.041-2.486 4.454-5.552-.588-3.066-3.5-5.552-6.503-5.552s-4.997 2.486-4.453 5.552z" fill="#057dff"/>
        <path d="M240.444 163.054c.66-1.366.542-2.801.126-4.103-.4-1.331-1.112-2.478-1.884-3.731-.78-1.236-1.576-2.583-2.064-4.205-.495-1.64-.353-3.48.101-5.034.982-3.173 2.994-5.511 4.38-7.903.694-1.21 1.262-2.44 1.486-3.8.253-1.347.166-2.782-.494-4.135 1.145 1.004 1.7 2.632 1.774 4.208.072 1.592-.33 3.207-.938 4.628-1.203 2.88-3.006 5.22-3.707 7.748-.398 1.252-.496 2.464-.214 3.679.237 1.244.886 2.5 1.47 3.862.619 1.33 1.212 2.867 1.343 4.448.134 1.558-.221 3.318-1.379 4.338z" fill="#fff"/>
        <path d="M13.052 25.594H5.066A4.898 4.898 0 01.175 20.69V.077h17.768V20.69a4.898 4.898 0 01-4.891 4.904z" fill="url(#f)" transform="translate(232 164.7)"/>
        <path d="M19.184 5.848c-4.261 0-7.715 3.514-7.715 7.849 0 4.334 3.454 7.848 7.715 7.848 4.26 0 7.714-3.514 7.714-7.848 0-4.335-3.454-7.849-7.714-7.849zm0 12.899c-2.742 0-4.964-2.261-4.964-5.05 0-2.79 2.222-5.05 4.964-5.05 2.741 0 4.963 2.26 4.963 5.05 0 2.789-2.222 5.05-4.963 5.05z" fill="url(#f)" transform="translate(232 164.7)"/>
        <path d="M234.832 180.63a.965.965 0 01-.961-.963v-12.419c0-.53.432-.963.96-.963.529 0 .961.434.961.963v12.419c0 .53-.432.963-.96.963z" fill="#fff" opacity=".2"/>
        <path d="M245.84 164.798v21.006a4.506 4.506 0 01-4.5 4.512h4.103c2.485 0 4.5-2.02 4.5-4.512v-21.006z" fill="#0072ef"/>
        <path d="M8.004 44.266h55.992c4.353 0 7.914-3.6 7.914-8V8.18c0-4.4-3.561-8-7.914-8H8.004C3.651.18.09 3.78.09 8.18v28.085c0 4.4 3.56 8 7.914 8z" fill="url(#f)" transform="translate(197 32)"/>
        <path d="M206.543 87.87V67.61l15.696 8.655z" fill="#0068ef"/>
        <path d="M241.845 56.209h-32.079c-.955 0-1.737-.79-1.737-1.756v-.334c0-.966.782-1.756 1.737-1.756h32.08c.955 0 1.737.79 1.737 1.756v.334c0 .966-.782 1.756-1.738 1.756zm14.388 0h-8.178c-.956 0-1.737-.79-1.737-1.756v-.334c0-.966.781-1.756 1.737-1.756h8.178c.956 0 1.738.79 1.738 1.756v.334c0 .966-.782 1.756-1.738 1.756zm-32.079-12.581h32.08c.955 0 1.737.79 1.737 1.756v.334c0 .966-.782 1.756-1.738 1.756h-32.079c-.955 0-1.737-.79-1.737-1.756v-.334c0-.966.782-1.756 1.737-1.756zm-14.388 0h8.179c.955 0 1.737.79 1.737 1.756v.334c0 .966-.782 1.756-1.737 1.756h-8.179c-.955 0-1.737-.79-1.737-1.756v-.334c0-.966.782-1.756 1.737-1.756zm21.497 20.566h-21.497c-.955 0-1.737-.79-1.737-1.756v-.334c0-.966.782-1.756 1.737-1.756h21.497c.955 0 1.737.79 1.737 1.756v.334c0 .966-.782 1.756-1.737 1.756z" fill="#fff" opacity=".203"/>
        <path d="M139.935 154.071c.726-.122 1.454-.24 2.183-.354a186.88 186.88 0 0010.582-1.956c6.95-1.494 13.941-2.777 21.017-3.44.75-.07 1.5-.133 2.25-.189 3.173-.237 6.497-.314 9.4 1.185 2.903 1.5 5.213 5.047 4.504 8.466-.498 2.403-2.357 4.21-4.422 5.122-2.064.912-4.338 1.07-6.568 1.219l-21.671 1.442c-3.577.236-7.153.48-10.73.726-3.414.235-6.881.712-10.306.708-1.449-.002-3.066-.27-4.283-1.225-1.692-1.329-2.71-4.157-2.874-6.366-.085-1.148.141-2.541 1.03-3.251.476-.38 1.081-.497 1.664-.603 2.745-.5 5.477-1.02 8.224-1.484z" fill="url(#f)" transform="translate(33 25)"/>
        <path d="M164.813 190.523c-1.72.36-3.065 1.89-4.778 2.402-1.222.366-2.53.17-3.705-.276-1.08-.41-2.178-.629-3.286-.988-.864-.28-2.031-.87-2.96-.675-2.432.513-4.858 2.266-7.063 3.403-.496.256-1.039.52-1.585.415-.547-.105-1.003-.776-.692-1.243-.634.6-1.474 1.8-2.498 1.334-.418-.19-.67-.751-.439-1.152-.351.39-.72.794-1.206.988s-1.123.11-1.41-.333c-.134-.208-.174-.464-.186-.712-.042-.855.212-1.7.565-2.478 1.736-3.837 5.664-6.683 9.005-8.97.591-.404 1.194-.814 1.876-1.025.61-.189 1.258-.21 1.897-.213 4.144-.019 8.29.66 12.217 2 .85.289 1.786.042 2.633-.119.627-.118 1.283-.236 1.895-.055.686.203 1.217.752 1.634 1.339.768 1.078 1.355 2.506 1.264 3.861-.07 1.03-.147 2.139-1.343 2.355-.484.087-.983.033-1.473.085a3.623 3.623 0 00-.362.057z" fill="#ffcebd"/>
        <g transform="translate(33 25)">
          <use fill="#000" filter="url(#k)" xlink:href="#l"/>
          <use fill="url(#m)" xlink:href="#l"/>
        </g>
        <path d="M93.608 38.1h-9.323c-3.964 0-7.207 3.335-7.207 7.411a7.478 7.478 0 003.125 6.097v5.216l5.187-3.902h8.218c3.964 0 7.207-3.335 7.207-7.41 0-4.078-3.243-7.412-7.207-7.412z" fill="#2362e9"/>
        <g fill="#fff" transform="translate(77 38)">
          <circle cx="6.7" cy="7.5" r="1.1"/>
          <circle cx="11.9" cy="7.5" r="1.1"/>
          <circle cx="17.2" cy="7.5" r="1.1"/>
        </g>
        <path d="M237.332 103.2c-1.481-2.387-5.22-3.585-8.832.392-3.613-3.977-7.35-2.779-8.832-.392-3.648 5.88 8.832 12.8 8.832 12.8s12.48-6.92 8.832-12.8zM153.59 39.914h-17.138c-1.274 0-2.316-1.066-2.316-2.368v-10.12c0-1.302 1.042-2.368 2.316-2.368h17.139c1.273 0 2.315 1.066 2.315 2.369v10.119c0 1.302-1.042 2.368-2.315 2.368z" fill="#2362e9"/>
      </g>
      <path d="M134.487 25.535l9.532 9.453a1.44 1.44 0 002.004 0l9.532-9.453m-21.068 13.9l7.821-6.144m13.247 6.144l-7.821-6.144" stroke="#4d86fe"/>
      <g fill-rule="nonzero">
        <path d="M116.643 97.257H96.354c-1.264 0-2.29-1.075-2.29-2.4V81.554c0-1.326 1.026-2.4 2.29-2.4h20.289c1.265 0 2.29 1.074 2.29 2.4v13.303c0 1.325-1.025 2.4-2.29 2.4z" fill="#2362e9"/>
        <path d="M106.499 102.976l4.36-6.163h-8.72z" fill="#2362e9"/>
        <path d="M113.041 90.533h-1.075v-3.087l.01-.507.017-.555c-.178.188-.302.31-.372.369l-.585.492-.519-.678 1.64-1.369h.884zm-7.975-5.514h-3.53c-1.5 0-2.727 1.287-2.727 2.86 0 .972.47 1.834 1.182 2.351v2.013l1.964-1.506h3.111c1.5 0 2.728-1.286 2.728-2.859 0-1.572-1.227-2.859-2.728-2.859z" fill="#fff"/>
      </g>
    </g>
  </g>
</svg>
