<svg width="169" height="125" xmlns="http://www.w3.org/2000/svg" xmlns:xlink="http://www.w3.org/1999/xlink">
  <defs/>
  <title>
    Suitcase
  </title>
  <defs>
    <linearGradient x1="37.304%" y1="58.587%" x2="92.57%" y2="39.732%" id="e">
      <stop stop-color="#041F77" offset="0%"/>
      <stop stop-color="#0947BF" offset="99.974%"/>
    </linearGradient>
    <linearGradient x1="60.512%" y1="52.564%" x2="89.047%" y2="46.725%" id="f">
      <stop stop-color="#CFD8F9" offset="0%"/>
      <stop stop-color="#FFF" offset="100%"/>
    </linearGradient>
    <filter x="-19.3%" y="-25.2%" width="138.6%" height="163%" filterUnits="objectBoundingBox" id="a">
      <feOffset dy="2" in="SourceAlpha" result="shadowOffsetOuter1"/>
      <feGaussianBlur stdDeviation="3" in="shadowOffsetOuter1" result="shadowBlurOuter1"/>
      <feColorMatrix values="0 0 0 0 0.568620729 0 0 0 0 0.629977055 0 0 0 0 0.861243207 0 0 0 1 0" in="shadowBlurOuter1"/>
    </filter>
    <filter x="-6.4%" y="-11.9%" width="117.2%" height="128.6%" filterUnits="objectBoundingBox" id="c">
      <feOffset dx="3" dy="2" in="SourceAlpha" result="shadowOffsetOuter1"/>
      <feGaussianBlur stdDeviation="3.5" in="shadowOffsetOuter1" result="shadowBlurOuter1"/>
      <feColorMatrix values="0 0 0 0 0.282083321 0 0 0 0 0.392492788 0 0 0 0 0.800158514 0 0 0 1 0" in="shadowBlurOuter1"/>
    </filter>
    <path d="M21.795 31.874c-.84 0-1.68-.217-2.429-.65L1.685 21.012a3.313 3.313 0 01-1.673-2.9 3.31 3.31 0 011.676-2.898L27.711.142l1.81 3.145L3.923 18.114l17.258 9.968c.38.22.851.218 1.23-.001l27.547-16.082 1.818 3.141-27.547 16.082a4.858 4.858 0 01-2.434.652z" id="b"/>
    <path d="M155.116 64.295h.004V36.407l-27.17 9.59-26.869-15.519a9.948 9.948 0 00-9.951 0L50.116 54.166l-34.563-5.304v28.445c.008 1.837.918 3.672 2.736 4.722l51.335 29.648a9.949 9.949 0 009.951 0l72.84-42.069c2.014-1.163 2.91-3.287 2.701-5.313z" id="d"/>
  </defs>
  <g transform="matrix(-1 0 0 1 165 0)" fill="none">
    <g transform="translate(.995 85.01)">
      <use fill="#000" filter="url(#a)" xlink:href="#b"/>
      <use fill="#56659B" xlink:href="#b"/>
    </g>
    <path d="M22.8 117.611a5.601 5.601 0 01-2.8-.748L2.398 106.698c-.735-.425-1.358-1.041-1.718-1.81a4.081 4.081 0 011.641-5.293l5.79-3.335a2.055 2.055 0 012.063.007l2.25 1.315c.789.46.785 1.6-.005 2.056l-6.048 3.488 16.168 9.337a.51.51 0 00.504 0l6.714-3.75a2.055 2.055 0 012.046.024l2.28 1.345c.79.467.776 1.616-.026 2.062l-8.504 4.736a5.496 5.496 0 01-2.753.731z" fill="#041F77"/>
    <use fill="#000" filter="url(#c)" xlink:href="#d"/>
    <use fill="url(#e)" xlink:href="#d"/>
    <path d="M91.13 1.446l-72.84 42.07c-3.649 2.106-3.649 7.374 0 9.48l51.334 29.649a9.948 9.948 0 009.951 0l72.84-42.069c3.649-2.107 3.649-7.375 0-9.482L101.081 1.446a9.949 9.949 0 00-9.951 0z" fill="#063298"/>
    <path d="M152.415 48.923l-72.84 42.069a9.949 9.949 0 01-9.951 0L18.289 61.344a5.393 5.393 0 01-2.652-3.834c-.35 2.123.527 4.42 2.652 5.648l51.335 29.648a9.949 9.949 0 009.951 0l72.84-42.069c2.125-1.227 3.003-3.525 2.653-5.648a5.393 5.393 0 01-2.653 3.834z" fill="url(#f)"/>
    <path d="M23.965 71.214l2.32-3.447-.74-.416-3.057 2.523a1.008 1.008 0 101.477 1.34zm-1.341-.005a.754.754 0 111.013-1.117.754.754 0 01-1.013 1.117z" fill="#FFF"/>
    <path d="M22.205 69.593l3.778-2-.902-.498-3.495.602a1.008 1.008 0 10.619 1.896zm-1.163-.67a.754.754 0 111.434-.467.754.754 0 01-1.434.467z" fill="#FFF"/>
    <path d="M157.358 57.74c0-2.985-1.374-4.816-3.423-5.116v-.526l-1.655.589c-.508.108-1.04.3-1.59.565l-.032.011.006.003c-.184.09-.367.18-.554.287-3.986 2.302-7.248 7.954-7.248 12.558 0 4.042 2.513 5.985 5.824 4.844l2.527-.842-.203-.407c3.565-2.576 6.348-7.715 6.348-11.967z" fill="#363650"/>
    <ellipse fill="#48486A" transform="rotate(-60 152.636 61.083)" cx="152.636" cy="61.083" rx="10.253" ry="5.918"/>
    <path d="M153.057 57.723c1.8-1.04 3.274-.189 3.274 1.89 0 2.08-1.473 4.632-3.274 5.672-1.8 1.04-3.273.189-3.273-1.89 0-2.08 1.473-4.632 3.273-5.672z" fill="#FFF"/>
    <path d="M31.746 50.27a1.815 1.815 0 01-.909-3.386L95.356 9.62a1.814 1.814 0 011.814 3.143L32.65 50.026a1.803 1.803 0 01-.905.244zm21.346 12.222a1.815 1.815 0 01-.909-3.386l64.518-37.263a1.813 1.813 0 111.814 3.143L53.997 62.248a1.803 1.803 0 01-.905.244zm21.346 12.222a1.815 1.815 0 01-.909-3.386l64.519-37.263a1.814 1.814 0 111.814 3.142L75.343 74.47a1.803 1.803 0 01-.905.244z" fill="#0C41AE"/>
  </g>
</svg>
